<?xml version="1.0" encoding="UTF-8" standalone="no"?>
<svg
   xmlns:dc="http://purl.org/dc/elements/1.1/"
   xmlns:cc="http://creativecommons.org/ns#"
   xmlns:rdf="http://www.w3.org/1999/02/22-rdf-syntax-ns#"
   xmlns:svg="http://www.w3.org/2000/svg"
   xmlns="http://www.w3.org/2000/svg"
   viewBox="0 0 184.252 45.354301"
   id="svg31"
   height="45.354301"
   width="184.252"
   version="1.1">
  <metadata
     id="metadata37">
    <rdf:RDF>
      <cc:Work
         rdf:about="">
        <dc:format>image/svg+xml</dc:format>
        <dc:type
           rdf:resource="http://purl.org/dc/dcmitype/StillImage" />
      </cc:Work>
    </rdf:RDF>
  </metadata>
  <defs
     id="defs35" />
  <g
     id="Layer1000">
    <path
       id="path2"
       style="fill:#009ee0;fill-rule:evenodd"
       d="m 9.6458,40.9862 c 2.0942,1.0238 35.29,1.11 37.4599,0.1349 l 0.3214,-0.7947 C 47.9283,38.264 47.7163,34.643 47.5844,32.528 L 24.6917,32.3728 C 23.6097,28.3634 24.4138,10.5043 24.2855,5.0563 21.4482,4.4767 15.531,4.7441 12.3758,4.7502 9.6185,4.7556 9.2391,4.8086 9.1295,7.7995 c -0.0818,2.2374 0.0158,4.7932 0.0163,7.0728 9e-4,4.32 -0.7325,23.7396 0.5,26.1139 z" />
    <path
       id="path4"
       style="fill:#009ee0;fill-rule:evenodd"
       d="m 33.1157,10.3547 v 13.0508 c 0,2.4221 -0.4418,3.5051 1.5294,3.9979 l 11.0773,0.053 c 2.4345,-0.3681 1.9485,-1.2008 1.9485,-4.0509 C 47.6709,0.8391 49.1023,4.8023 40.6311,4.801 33.456,4.8 33.1157,2.8433 33.1157,10.3547 Z" />
    <path
       id="path6"
       style="fill:#009ee0;fill-rule:evenodd"
       d="m 117.1095,18.287 c -0.9071,1.2109 0.2433,0.4696 -1.5423,1.048 -0.009,0.0028 -1.275,0.1307 -1.3738,0.1339 -0.9266,0.0298 -2.2665,-0.0766 -3.2674,-0.0809 -2.0034,-0.0086 -4.0083,-7e-4 -6.0131,-7e-4 l -0.001,0.502 c -0.5738,0.4989 -0.4651,-0.5405 -0.4601,2.0078 3.5762,0 11.5746,-0.7474 13.4091,0 l 0.003,19.5762 h 3.235 c 0,-4.501 -0.4877,-10.3929 0.4623,-14.0546 -0.7952,-0.5578 -1.5355,-0.968 -2.3123,-1.506 2.305,-3.1407 0.008,-1.1374 1.85,-4.0156 3.5453,0 7.0934,-0.0152 10.6383,0.0013 2.3819,0.0109 3.281,0.022 5.5041,-0.3937 0.1112,-0.0208 0.2387,-0.0665 0.3391,-0.08 0.0868,-0.0115 0.2195,-0.0328 0.298,-0.0367 1.5628,-0.0764 1.6451,1.2895 2.1815,-1.4961 -2.8282,-0.3732 0.4463,1.0214 -0.9248,-0.5046 l -13.9076,0.0394 c -3.9772,0.0898 -2.8897,-0.1343 -3.2038,-1.1132 -1.3926,-0.9153 -0.4656,0.2498 -0.8705,-1.4698 -0.1196,-0.5077 0.005,-1.7436 0.03,-2.3364 l 16.046,-0.1586 0.0665,-3.5143 -16.1065,-0.0443 -0.1956,-5.7977 -3.9317,-0.0958 z" />
    <path
       id="path8"
       style="fill:#009ee0;fill-rule:evenodd"
       d="m 148.7351,11.2286 -3.9831,0.0934 -0.0367,3.0166 4.0105,0.1132 0.1078,8.4514 -4.0571,1.3554 -0.0721,3.6764 4.0282,-1.131 c 1.1198,14.2915 -0.6652,11.5358 -3.9675,11.679 l -0.0224,3.3935 c 2.2241,-7e-4 5.5666,0.539 7.2524,-0.4007 2.2114,-3.5729 0.3883,-11.0642 1.1842,-15.9521 1.6834,-0.2094 3.2023,-0.2157 4.3221,-1.1142 l 0.0538,-2.5511 -4.4907,0.3365 -0.1155,-7.7376 4.5463,-0.1631 0.0637,-2.8557 -4.4746,-0.2531 -0.2096,-6.1889 -3.9175,-0.0656 z" />
    <path
       id="path10"
       style="fill:#009ee0;fill-rule:evenodd"
       d="m 169.1328,36.4055 -12.3672,0.1434 -0.1842,2.9148 c 2.1686,0.8953 21.7823,0.5099 25.3376,0.2311 l 0.2502,-3.0835 -8.7506,-0.0829 c 0.1712,-1.1954 0.8359,-3.4477 1.2606,-4.6862 l 3.7949,-14.3921 -3.7266,-0.1204 c -1.0824,1.7876 -4.8949,16.1256 -5.6147,19.0758 z" />
    <path
       id="path12"
       style="fill:#009ee0;fill-rule:evenodd"
       d="m 69.2823,41.2334 c 2.1873,-0.1332 1.8881,-3.9953 1.8845,-6.7787 -0.0038,-2.943 -0.1242,-5.947 0.1821,-8.8646 l 3.9544,-0.7912 -0.0848,-3.2685 -3.8189,0.8555 c -1.0198,-0.6931 -0.2243,0.2542 -0.8516,-1.0814 -0.936,-1.9932 0.1202,1.0129 -0.296,-0.8846 -0.2524,-1.1504 0.1813,-5.0889 0.5744,-6.4181 2.7284,-1.1625 3.2207,0.6329 3.8004,-1.7922 L 70.7359,11.5613 70.2291,5.9749 c -4.8957,-1.1609 -2.172,2.9207 -2.7749,5.2436 -1.7244,0.9516 -3.3426,0.6188 -4.4299,1.646 1.0911,0.9771 2.7156,0.6813 4.4557,1.6002 l -0.0469,8.4845 c -4.181,3.2579 -3.6245,0.1683 -4.6271,3.0322 1.7335,0.7253 3.3288,-0.7547 4.453,1.1875 0.5952,1.0281 0.0379,4.114 0.0789,5.7776 0.2216,9.0011 -0.9761,4.9561 -4.4109,7.1107 1.3862,2.0859 3.7989,0.7665 6.3553,1.1762 z" />
    <path
       id="path14"
       style="fill:#009ee0;fill-rule:evenodd"
       d="m 122.023,18.3135 c 0.3141,0.9789 -0.7734,1.203 3.2038,1.1132 l 13.9076,-0.0394 c 1.3711,1.526 -1.9034,0.1314 0.9248,0.5046 -0.5364,2.7856 -0.6187,1.4197 -2.1815,1.4961 -0.0785,0.0039 -0.2112,0.0252 -0.298,0.0367 -0.1004,0.0135 -0.2279,0.0592 -0.3391,0.08 -2.2231,0.4157 -3.1222,0.4046 -5.5041,0.3937 -3.5449,-0.0165 -7.093,-0.0013 -10.6383,-0.0013 -1.8424,2.8782 0.455,0.8749 -1.85,4.0156 0.7768,0.538 1.5171,0.9482 2.3123,1.506 -0.95,3.6617 -0.4623,9.5536 -0.4623,14.0546 h -3.235 l -0.003,-19.5762 c -1.8345,-0.7474 -9.8329,0 -13.4091,0 -0.005,-2.5483 -0.1137,-1.5089 0.4601,-2.0078 l 0.001,-0.502 c 2.0048,0 4.0097,-0.0079 6.0131,7e-4 1.0009,0.0043 2.3408,0.1107 3.2674,0.0809 0.0988,-0.0032 1.3648,-0.1311 1.3738,-0.1339 1.7856,-0.5784 0.6352,0.1629 1.5423,-1.048 l -14.4441,0.1436 -0.1363,3.4753 14.3017,0.0433 0.1147,19.9158 4.034,0.019 0.1952,-13.3114 7.2079,3.0149 c 2.4263,1.1726 4.4489,2.921 7.0543,3.7582 1.1627,-1.1013 1.6552,-1.7444 1.8704,-3.407 -0.4599,-0.3521 -5.263,-2.0657 -8.4369,-3.9243 -6.3302,-3.7068 -6.2542,-3.424 -7.5639,-1.7325 L 121.0746,22.0004 140,21.9251 l 0.0757,-3.4847 z" />
    <path
       id="path16"
       style="fill:#009ee0;fill-rule:evenodd"
       d="m 88.8261,30.3633 -1.3748,6.5749 c -2.3787,1.0866 -9.9972,-0.0234 -11.2011,0.2384 -1.7517,0.3808 -0.384,-0.2838 -1.4088,0.7856 0.9881,1.7577 2.9201,0.9502 5.098,1.0168 l 16.2007,0.1758 c 0.4642,-0.0139 0.9242,-0.0048 1.3877,-0.09 2.2246,-0.4092 -1.5125,0.5061 0.8677,-0.2364 l 0.8133,-0.3644 c -0.9307,-1.3353 1.4442,-0.3984 -1.6615,-1.053 -0.3188,-0.0672 -1.9275,-0.065 -2.3403,-0.0599 -5.3044,0.0644 -4.7743,0.4015 -4.6816,-3.9065 L 91.983,32.4432 C 93.5636,30.5878 95.5603,19.1527 96.3727,17.58 L 92.0263,17.2964 C 91.3205,20.1049 88.5835,28 88.8261,30.3633 Z" />
    <path
       id="path18"
       style="fill:#009ee0;fill-rule:evenodd"
       d="m 83.6911,6.8411 c 0.4441,2.6529 1.2283,1.65 2.1813,4.3299 l -9.6086,0.1119 -0.0108,3.0351 22.1301,0.0751 0.0951,-3.0693 -9.9879,-0.1505 c 1.5409,-0.925 0.8922,-0.5679 1.334,-1.8226 C 88.5432,6.7953 87.4733,6.7121 86.5419,4.828 Z" />
    <path
       id="path20"
       style="fill:#009ee0;fill-rule:evenodd"
       d="m 165.6136,6.8156 c 0.7215,1.0824 2.3491,3.6739 2.8856,4.292 l -9.7559,0.2443 0.003,2.7727 21.9911,0.2578 0.1002,-3.0796 -10.0528,-0.1166 c 1.4723,-0.585 1.2834,-0.6987 1.6138,-1.8355 -1.6104,-2.1146 -1.8841,-3.0656 -4.0643,-4.3536 -0.8538,0.6884 -1.8421,1.1674 -2.7206,1.8185 z" />
    <path
       id="path22"
       style="fill:#009ee0;fill-rule:evenodd"
       d="m 69.2823,41.2334 c -2.5564,-0.4097 -4.9691,0.9097 -6.3553,-1.1762 3.4348,-2.1546 4.6325,1.8904 4.4109,-7.1107 -0.041,-1.6636 0.5163,-4.7495 -0.0789,-5.7776 -1.1242,-1.9422 -2.7195,-0.4622 -4.453,-1.1875 1.0026,-2.8639 0.4461,0.2257 4.6271,-3.0322 L 67.48,14.4647 c -1.7401,-0.9189 -3.3646,-0.6231 -4.4557,-1.6002 1.0873,-1.0272 2.7055,-0.6944 4.4299,-1.646 0.6029,-2.3229 -2.1208,-6.4045 2.7749,-5.2436 l 0.5068,5.5864 3.8909,0.6483 c -0.5797,2.4251 -1.072,0.6297 -3.8004,1.7922 -0.3931,1.3292 -0.8268,5.2677 -0.5744,6.4181 0.4162,1.8975 -0.64,-1.1086 0.296,0.8846 0.6273,1.3356 -0.1682,0.3883 0.8516,1.0814 L 71.2575,14.557 75.2996,14.4013 75.353,11.3012 71.3686,11.1238 71.119,4.9214 66.5898,4.8559 l -0.2248,6.2649 -4.4025,0.1679 -0.0298,3.0125 4.477,0.2539 0.0224,8.3485 c -1.7276,0.9773 -2.5995,0.2897 -4.4834,2.0077 l 0.0225,2.9261 4.37,-0.8694 0.0432,11.1479 -4.445,0.3904 0.0085,3.3241 c 2.209,0.1747 5.9862,0.6663 7.3344,-0.597 z" />
    <path
       id="path24"
       style="fill:#009ee0;fill-rule:evenodd"
       d="m 81.7907,33.8551 3.2729,0.1069 C 84.7839,30.3505 82.5424,21.2797 81.6623,17.0757 l -3.8245,0.0158 c -0.0622,2.0182 3.0582,15.3087 3.9529,16.7636 z" />
    <path
       id="path26"
       style="fill:#009ee0;fill-rule:evenodd"
       d="m 164.1098,33.8622 3.2311,0.1117 -3.5993,-16.7795 -3.6588,-0.1616 c 0.0355,1.7077 3.367,15.8272 4.027,16.8294 z" />
    <path
       id="path28"
       style="fill:#009ee0;fill-rule:evenodd"
       d="m 91.983,32.4432 -1.4576,1.0014 c -0.0927,4.308 -0.6228,3.9709 4.6816,3.9065 0.4128,-0.0051 2.0215,-0.0073 2.3403,0.0599 3.1057,0.6546 0.7308,-0.2823 1.6615,1.053 l -0.8133,0.3644 c -2.3802,0.7425 1.3569,-0.1728 -0.8677,0.2364 -0.4635,0.0852 -0.9235,0.0761 -1.3877,0.09 L 79.9394,38.979 c -2.1779,-0.0666 -4.1099,0.7409 -5.098,-1.0168 1.0248,-1.0694 -0.3429,-0.4048 1.4088,-0.7856 1.2039,-0.2618 8.8224,0.8482 11.2011,-0.2384 l 1.3748,-6.5749 C 87.9717,31.0834 88.7515,29.651 87.9015,31.58 l -1.4861,4.8246 -12.0049,0.0706 -0.1471,2.9907 c 2.2063,0.8432 22.5057,0.6571 25.7275,0.1739 l 0.1152,-2.9505 -9.0053,-0.2451 z" />
  </g>
</svg>
